<?xml version="1.0" encoding="UTF-8" standalone="no"?>
<svg
   width="3840"
   height="2160"
   viewBox="0 0 3840 2160"
   version="1.1"
   id="svg143"
   sodipodi:docname="gpt_grid.svg"
   inkscape:version="1.4 (86a8ad7, 2024-10-11)"
   xmlns:inkscape="http://www.inkscape.org/namespaces/inkscape"
   xmlns:sodipodi="http://sodipodi.sourceforge.net/DTD/sodipodi-0.dtd"
   xmlns="http://www.w3.org/2000/svg"
   xmlns:svg="http://www.w3.org/2000/svg">
  <defs
     id="defs143" />
  <sodipodi:namedview
     id="namedview143"
     pagecolor="#505050"
     bordercolor="#ffffff"
     borderopacity="1"
     inkscape:showpageshadow="0"
     inkscape:pageopacity="0"
     inkscape:pagecheckerboard="1"
     inkscape:deskcolor="#505050"
     inkscape:zoom="0.61805556"
     inkscape:cx="2326.6517"
     inkscape:cy="1042.7865"
     inkscape:window-width="3840"
     inkscape:window-height="1537"
     inkscape:window-x="1432"
     inkscape:window-y="563"
     inkscape:window-maximized="1"
     inkscape:current-layer="g143" />
  <!-- Outer frame -->
  <rect
     x="1"
     y="1"
     width="3838"
     height="2158"
     fill="none"
     stroke="white"
     stroke-width="2"
     id="rect1" />
  <!-- Grid lines -->
  <g
     stroke="white"
     stroke-width="1"
     id="g48">
    <!-- Vertical lines -->
    <line
       x1="160"
       y1="0"
       x2="160"
       y2="2160"
       id="line1" />
    <line
       x1="320"
       y1="0"
       x2="320"
       y2="2160"
       id="line2" />
    <line
       x1="480"
       y1="0"
       x2="480"
       y2="2160"
       id="line3" />
    <line
       x1="640"
       y1="0"
       x2="640"
       y2="2160"
       id="line4" />
    <line
       x1="800"
       y1="0"
       x2="800"
       y2="2160"
       id="line5" />
    <line
       x1="960"
       y1="0"
       x2="960"
       y2="2160"
       id="line6" />
    <line
       x1="1120"
       y1="0"
       x2="1120"
       y2="2160"
       id="line7" />
    <line
       x1="1280"
       y1="0"
       x2="1280"
       y2="2160"
       id="line8" />
    <line
       x1="1440"
       y1="0"
       x2="1440"
       y2="2160"
       id="line9" />
    <line
       x1="1600"
       y1="0"
       x2="1600"
       y2="2160"
       id="line10" />
    <line
       x1="1760"
       y1="0"
       x2="1760"
       y2="2160"
       id="line11" />
    <line
       x1="1920"
       y1="0"
       x2="1920"
       y2="2160"
       stroke-width="2"
       id="line12" />
    <line
       x1="2080"
       y1="0"
       x2="2080"
       y2="2160"
       id="line13" />
    <line
       x1="2240"
       y1="0"
       x2="2240"
       y2="2160"
       id="line14" />
    <line
       x1="2400"
       y1="0"
       x2="2400"
       y2="2160"
       id="line15" />
    <line
       x1="2560"
       y1="0"
       x2="2560"
       y2="2160"
       id="line16" />
    <line
       x1="2720"
       y1="0"
       x2="2720"
       y2="2160"
       id="line17" />
    <line
       x1="2880"
       y1="0"
       x2="2880"
       y2="2160"
       id="line18" />
    <line
       x1="3040"
       y1="0"
       x2="3040"
       y2="2160"
       id="line19" />
    <line
       x1="3200"
       y1="0"
       x2="3200"
       y2="2160"
       id="line20" />
    <line
       x1="3360"
       y1="0"
       x2="3360"
       y2="2160"
       id="line21" />
    <line
       x1="3520"
       y1="0"
       x2="3520"
       y2="2160"
       id="line22" />
    <line
       x1="3680"
       y1="0"
       x2="3680"
       y2="2160"
       id="line23" />
    <!-- Horizontal lines -->
    <line
       x1="0"
       y1="90"
       x2="3840"
       y2="90"
       id="line24" />
    <line
       x1="0"
       y1="180"
       x2="3840"
       y2="180"
       id="line25" />
    <line
       x1="0"
       y1="270"
       x2="3840"
       y2="270"
       id="line26" />
    <line
       x1="0"
       y1="360"
       x2="3840"
       y2="360"
       id="line27" />
    <line
       x1="0"
       y1="450"
       x2="3840"
       y2="450"
       id="line28" />
    <line
       x1="0"
       y1="540"
       x2="3840"
       y2="540"
       id="line29" />
    <line
       x1="0"
       y1="630"
       x2="3840"
       y2="630"
       id="line30" />
    <line
       x1="0"
       y1="720"
       x2="3840"
       y2="720"
       id="line31" />
    <line
       x1="0"
       y1="810"
       x2="3840"
       y2="810"
       id="line32" />
    <line
       x1="0"
       y1="900"
       x2="3840"
       y2="900"
       id="line33" />
    <line
       x1="0"
       y1="990"
       x2="3840"
       y2="990"
       id="line34" />
    <line
       x1="0"
       y1="1080"
       x2="3840"
       y2="1080"
       stroke-width="2"
       id="line35" />
    <line
       x1="0"
       y1="1170"
       x2="3840"
       y2="1170"
       id="line36" />
    <line
       x1="0"
       y1="1260"
       x2="3840"
       y2="1260"
       id="line37" />
    <line
       x1="0"
       y1="1350"
       x2="3840"
       y2="1350"
       id="line38" />
    <line
       x1="0"
       y1="1440"
       x2="3840"
       y2="1440"
       id="line39" />
    <line
       x1="0"
       y1="1530"
       x2="3840"
       y2="1530"
       id="line40" />
    <line
       x1="0"
       y1="1620"
       x2="3840"
       y2="1620"
       id="line41" />
    <line
       x1="0"
       y1="1710"
       x2="3840"
       y2="1710"
       id="line42" />
    <line
       x1="0"
       y1="1800"
       x2="3840"
       y2="1800"
       id="line43" />
    <line
       x1="0"
       y1="1890"
       x2="3840"
       y2="1890"
       id="line44" />
    <line
       x1="0"
       y1="1980"
       x2="3840"
       y2="1980"
       id="line45" />
    <line
       x1="0"
       y1="2070"
       x2="3840"
       y2="2070"
       id="line46" />
    <!-- Diagonal lines -->
    <line
       x1="0"
       y1="0"
       x2="3840"
       y2="2160"
       stroke="white"
       stroke-width="1"
       id="line47" />
    <line
       x1="3840"
       y1="0"
       x2="0"
       y2="2160"
       stroke="white"
       stroke-width="1"
       id="line48" />
  </g>
  <!-- Labels -->
  <g
     font-size="12"
     fill="white"
     font-family="Arial"
     font-weight="bold"
     text-anchor="end"
     id="g143">
    <!-- Top row -->
    <text
       x="152"
       y="20"
       id="text48">A</text>
    <text
       x="312"
       y="20"
       id="text49">B</text>
    <text
       x="472"
       y="20"
       id="text50">C</text>
    <text
       x="632"
       y="20"
       id="text51">D</text>
    <text
       x="792"
       y="20"
       id="text52">E</text>
    <text
       x="952"
       y="20"
       id="text53">F</text>
    <text
       x="1112"
       y="20"
       id="text54">G</text>
    <text
       x="1272"
       y="20"
       id="text55">H</text>
    <text
       x="1432"
       y="20"
       id="text56">I</text>
    <text
       x="1592"
       y="20"
       id="text57">J</text>
    <text
       x="1752"
       y="20"
       id="text58">K</text>
    <text
       x="1912"
       y="20"
       id="text59">L</text>
    <text
       x="2072"
       y="20"
       id="text60">M</text>
    <text
       x="2232"
       y="20"
       id="text61">N</text>
    <text
       x="2392"
       y="20"
       id="text62">O</text>
    <text
       x="2552"
       y="20"
       id="text63">P</text>
    <text
       x="2712"
       y="20"
       id="text64">Q</text>
    <text
       x="2872"
       y="20"
       id="text65">R</text>
    <text
       x="3032"
       y="20"
       id="text66">S</text>
    <text
       x="3192"
       y="20"
       id="text67">T</text>
    <text
       x="3352"
       y="20"
       id="text68">U</text>
    <text
       x="3512"
       y="20"
       id="text69">V</text>
    <text
       x="3672"
       y="20"
       id="text70">W</text>
    <text
       x="3832"
       y="20"
       id="text71">X</text>
    <!-- Bottom row -->
    <text
       x="152"
       y="2150"
       id="text72">A</text>
    <text
       x="312"
       y="2150"
       id="text73">B</text>
    <text
       x="472"
       y="2150"
       id="text74">C</text>
    <text
       x="632"
       y="2150"
       id="text75">D</text>
    <text
       x="792"
       y="2150"
       id="text76">E</text>
    <text
       x="952"
       y="2150"
       id="text77">F</text>
    <text
       x="1112"
       y="2150"
       id="text78">G</text>
    <text
       x="1272"
       y="2150"
       id="text79">H</text>
    <text
       x="1432"
       y="2150"
       id="text80">I</text>
    <text
       x="1592"
       y="2150"
       id="text81">J</text>
    <text
       x="1752"
       y="2150"
       id="text82">K</text>
    <text
       x="1912"
       y="2150"
       id="text83">L</text>
    <text
       x="2072"
       y="2150"
       id="text84">M</text>
    <text
       x="2232"
       y="2150"
       id="text85">N</text>
    <text
       x="2392"
       y="2150"
       id="text86">O</text>
    <text
       x="2552"
       y="2150"
       id="text87">P</text>
    <text
       x="2712"
       y="2150"
       id="text88">Q</text>
    <text
       x="2872"
       y="2150"
       id="text89">R</text>
    <text
       x="3032"
       y="2150"
       id="text90">S</text>
    <text
       x="3192"
       y="2150"
       id="text91">T</text>
    <text
       x="3352"
       y="2150"
       id="text92">U</text>
    <text
       x="3512"
       y="2150"
       id="text93">V</text>
    <text
       x="3672"
       y="2150"
       id="text94">W</text>
    <text
       x="3832"
       y="2150"
       id="text95">X</text>
    <!-- Left column -->
    <text
       x="10"
       y="80"
       text-anchor="start"
       id="text96">1</text>
    <text
       x="10"
       y="170"
       text-anchor="start"
       id="text97">2</text>
    <text
       x="10"
       y="260"
       text-anchor="start"
       id="text98">3</text>
    <text
       x="10"
       y="350"
       text-anchor="start"
       id="text99">4</text>
    <text
       x="10"
       y="440"
       text-anchor="start"
       id="text100">5</text>
    <text
       x="10"
       y="530"
       text-anchor="start"
       id="text101">6</text>
    <text
       x="10"
       y="620"
       text-anchor="start"
       id="text102">7</text>
    <text
       x="10"
       y="710"
       text-anchor="start"
       id="text103">8</text>
    <text
       x="10"
       y="800"
       text-anchor="start"
       id="text104">9</text>
    <text
       x="10"
       y="890"
       text-anchor="start"
       id="text105">10</text>
    <text
       x="10"
       y="980"
       text-anchor="start"
       id="text106">11</text>
    <text
       x="10"
       y="1070"
       text-anchor="start"
       id="text107">12</text>
    <text
       x="10"
       y="1160"
       text-anchor="start"
       id="text108">13</text>
    <text
       x="10"
       y="1250"
       text-anchor="start"
       id="text109">14</text>
    <text
       x="10"
       y="1340"
       text-anchor="start"
       id="text110">15</text>
    <text
       x="10"
       y="1430"
       text-anchor="start"
       id="text111">16</text>
    <text
       x="10"
       y="1520"
       text-anchor="start"
       id="text112">17</text>
    <text
       x="10"
       y="1610"
       text-anchor="start"
       id="text113">18</text>
    <text
       x="10"
       y="1700"
       text-anchor="start"
       id="text114">19</text>
    <text
       x="10"
       y="1790"
       text-anchor="start"
       id="text115">20</text>
    <text
       x="10"
       y="1880"
       text-anchor="start"
       id="text116">21</text>
    <text
       x="10"
       y="1970"
       text-anchor="start"
       id="text117">22</text>
    <text
       x="10"
       y="2060"
       text-anchor="start"
       id="text118">23</text>
    <text
       x="10"
       y="2150"
       text-anchor="start"
       id="text119">24</text>
    <!-- Right column -->
    <text
       x="3820"
       y="80"
       text-anchor="start"
       id="text120">1</text>
    <text
       x="3820"
       y="170"
       text-anchor="start"
       id="text121">2</text>
    <text
       x="3820"
       y="260"
       text-anchor="start"
       id="text122">3</text>
    <text
       x="3820"
       y="350"
       text-anchor="start"
       id="text123">4</text>
    <text
       x="3820"
       y="440"
       text-anchor="start"
       id="text124">5</text>
    <text
       x="3820"
       y="530"
       text-anchor="start"
       id="text125">6</text>
    <text
       x="3820"
       y="620"
       text-anchor="start"
       id="text126">7</text>
    <text
       x="3820"
       y="710"
       text-anchor="start"
       id="text127">8</text>
    <text
       x="3820"
       y="800"
       text-anchor="start"
       id="text128">9</text>
    <text
       x="3820"
       y="890"
       text-anchor="start"
       id="text129">10</text>
    <text
       x="3820"
       y="980"
       text-anchor="start"
       id="text130">11</text>
    <text
       x="3820"
       y="1070"
       text-anchor="start"
       id="text131">12</text>
    <text
       x="3820"
       y="1160"
       text-anchor="start"
       id="text132">13</text>
    <text
       x="3820"
       y="1250"
       text-anchor="start"
       id="text133">14</text>
    <text
       x="3820"
       y="1340"
       text-anchor="start"
       id="text134">15</text>
    <text
       x="3820"
       y="1430"
       text-anchor="start"
       id="text135">16</text>
    <text
       x="3820"
       y="1520"
       text-anchor="start"
       id="text136">17</text>
    <text
       x="3820"
       y="1610"
       text-anchor="start"
       id="text137">18</text>
    <text
       x="3820"
       y="1700"
       text-anchor="start"
       id="text138">19</text>
    <text
       x="3820"
       y="1790"
       text-anchor="start"
       id="text139">20</text>
    <text
       x="3820"
       y="1880"
       text-anchor="start"
       id="text140">21</text>
    <text
       x="3820"
       y="1970"
       text-anchor="start"
       id="text141">22</text>
    <text
       x="3820"
       y="2060"
       text-anchor="start"
       id="text142">23</text>
    <text
       x="3820"
       y="2139.7034"
       text-anchor="start"
       id="text143">24</text>
    <circle
       style="display:inline;fill:#ffffff;fill-opacity:1;stroke:none;stroke-width:2;stroke-linejoin:bevel;stroke-miterlimit:11.5;stroke-dashoffset:1.30205"
       id="path143"
       cx="1919.9733"
       cy="900.12164"
       r="10" />
    <circle
       style="display:inline;fill:#ffffff;fill-opacity:1;stroke:none;stroke-width:2;stroke-linejoin:bevel;stroke-miterlimit:11.5;stroke-dashoffset:1.30205"
       id="circle143"
       cx="1919.9733"
       cy="1260.1216"
       r="10" />
    <circle
       style="display:inline;fill:#ffffff;fill-opacity:1;stroke:none;stroke-width:2;stroke-linejoin:bevel;stroke-miterlimit:11.5;stroke-dashoffset:1.30205"
       id="circle144"
       cx="1600.0182"
       cy="1080.071"
       r="10" />
    <circle
       style="display:inline;fill:#ffffff;fill-opacity:1;stroke:none;stroke-width:2;stroke-linejoin:bevel;stroke-miterlimit:11.5;stroke-dashoffset:1.30205"
       id="circle145"
       cx="2240.0151"
       cy="1080.071"
       r="10" />
    <text
       x="1924.3274"
       y="904.28668"
       id="text145"
       style="display:inline;fill:#000000;fill-opacity:1">N</text>
    <text
       x="1924.3274"
       y="1264.2361"
       id="text153"
       style="fill:#000000;fill-opacity:1">S</text>
    <text
       x="2243.8533"
       y="1084.2001"
       id="text154"
       style="fill:#000000;fill-opacity:1">E</text>
    <text
       x="1605.6545"
       y="1084.2391"
       id="text155"
       style="fill:#000000;fill-opacity:1">W</text>
  </g>
</svg>
