<svg xmlns="http://www.w3.org/2000/svg" height="24" viewBox="0 -960 960 960" width="24"><path d="M238.087-112.348q-46.435 0-92.946-24.032-46.51-24.033-76.62-66.25 28.392 0 55.631-19.544 27.239-19.543 28.196-59.261 1.195-50.956 37.271-86.793 36.077-35.837 88.468-35.837 52.391 0 89.185 36.743 36.793 36.744 36.793 89.235 0 68.631-48.674 117.185t-117.304 48.554Zm0-85.739q33 0 56.5-23.5t23.5-56.5q0-17-11.5-28.5t-28.5-11.5q-17 0-28.5 11.5t-11.5 28.5q0 23-5.5 42t-14.5 36q5 2 10 2h10ZM474.783-357.37 357.37-474.783l369-369q11-11 27.5-11.5t28.5 11.5l61.413 61.413q12 12 12 28t-12 28l-369 369Zm-196.696 79.283Z"/></svg>