<svg xmlns="http://www.w3.org/2000/svg" height="24" viewBox="0 -960 960 960" width="24"><path d="M480-65.413 302.348-243.065 367-307.717l67.5 67.499v-157.869h91l-1 156.869 67.5-67.499 65.652 65.652L480-65.413ZM243.065-302.348 65.413-480l176.652-176.652L306.717-592l-66.499 66.5h157.869v91H241.218l67.499 66.5-65.652 65.652Zm473.87 0L652.283-367l67.499-67.5H561.913v-91l156.869 1-67.499-67.5 65.652-65.652L894.587-480 716.935-302.348ZM434.5-561.913v-157.869L367-652.283l-64.652-64.652L480-894.587l177.652 177.652L593-652.283l-67.5-67.499v157.869h-91Z"/></svg>