<svg xmlns="http://www.w3.org/2000/svg" height="24" viewBox="0 -960 960 960" width="24"><path d="M402-32.108q-30.717 0-57.554-13.86-26.837-13.858-44.076-39.575L46.804-465.24l25.196-23q20.196-19 47.272-22.12 27.076-3.119 51.424 13.794l106.195 73.587v-381.566q0-18.195 12.457-30.652 12.456-12.456 30.652-12.456t30.652 12.456q12.457 12.457 12.457 30.652v545.131l-142.022-99.696L371.63-134.891q4.761 7.282 12.924 11.924 8.163 4.641 17.446 4.641h283.022q31.804 0 54.348-22.544 22.543-22.543 22.543-54.347v-569.805q0-18.196 12.457-30.652 12.456-12.457 30.652-12.457t30.652 12.457q12.457 12.456 12.457 30.652v569.805q0 67.435-47.837 115.272Q752.457-32.11 685.022-32.11H402Zm36.565-444.783v-409.566q0-18.195 12.457-30.652 12.456-12.456 30.652-12.456t30.652 12.456q12.457 12.457 12.457 30.652v409.566h-86.218Zm161.674 0v-368.131q0-18.196 12.457-30.652 12.456-12.457 30.652-12.457T674-875.674q12.457 12.456 12.457 30.652v368.131h-86.218ZM491.5-297.609Z"/></svg>