<svg xmlns="http://www.w3.org/2000/svg" height="24" viewBox="0 -960 960 960" width="24"><path d="M479.944-258.087q75.773 0 128.871-53.041 53.098-53.042 53.098-128.816 0-75.773-53.041-128.871-53.042-53.098-128.816-53.098-75.773 0-128.871 53.041-53.098 53.042-53.098 128.816 0 75.773 53.041 128.871 53.042 53.098 128.816 53.098Zm.056-86.217q-40.326 0-68.011-27.685-27.685-27.685-27.685-68.011 0-40.326 27.685-68.011 27.685-27.685 68.011-27.685 40.326 0 68.011 27.685 27.685 27.685 27.685 68.011 0 40.326-27.685 68.011-27.685 27.685-68.011 27.685ZM162.87-111.869q-37.783 0-64.392-26.609Q71.87-165.087 71.87-202.87v-474.26q0-37.783 26.61-64.392 26.608-26.609 64.391-26.609h118.826l77.347-80h241.914l77.347 80H797.13q37.783 0 64.392 26.609 26.609 26.609 26.609 64.392v474.26q0 37.783-26.609 64.392-26.609 26.609-64.392 26.609H162.87Zm0-91.001h634.26v-474.26H638.717l-75.63-80H397.63l-77.065 80H162.87v474.26ZM480-440Z"/></svg>