<svg xmlns="http://www.w3.org/2000/svg" height="24" viewBox="0 -960 960 960" width="24"><path d="M440-113.63q-124.109-15.479-206.12-108.011-82.011-92.533-82.011-217.881 0-66.717 26-127.935 26-61.217 74-107.652l64.892 64.653q-36.326 33.521-55.109 77.445-18.782 43.924-18.782 93.489 0 87.044 55.282 153.468Q353.435-219.63 440-204.87v91.24Zm80 0v-91.24q85.804-15.521 141.467-81.684 55.663-66.163 55.663-152.968 0-97.369-67.489-166.174-67.489-68.804-164.619-70.717h-3.957l45.435 45.435-58.63 58.63-151.24-151.239 151.24-151.479 58.63 58.631-48.783 48.783h4.196q136.631 0 231.424 95.63 94.794 95.631 94.794 232.5 0 124.348-82.011 217Q644.109-129.869 520-113.63Z"/></svg>