<svg xmlns="http://www.w3.org/2000/svg" height="24" viewBox="0 -960 960 960" width="24"><path d="M566.218-126.935V-213q89.76-26.478 144.88-100.359 55.12-73.88 55.12-167.641t-55.12-167.641Q655.978-722.522 566.218-749v-86.065q125.434 28.239 204.51 126.935 79.077 98.695 79.077 227.13t-79.077 227.13q-79.076 98.696-204.51 126.935ZM110.195-351.869v-256.262h164.783l211.24-211.239v678.74l-211.24-211.239H110.195Zm456.023 34.739v-327.74q47.956 22.718 75.771 67.196 27.816 44.478 27.816 97.674 0 52.196-27.816 96.294-27.815 44.097-75.771 66.576ZM395.217-599.065l-81.934 81.935H201.196v74.26h112.087l81.934 81.935v-238.13ZM298.087-480Z"/></svg>