<svg xmlns="http://www.w3.org/2000/svg" height="24" viewBox="0 -960 960 960" width="24"><path d="m389-347 337-337q-11-12-22-23.5T680-729L367-415q4 18 9 34.5t13 33.5Zm385-6q18-41 23-86L547-189q8 3 16.5 7t16.5 6q44-14 81-40t66-61q29-35 47-76ZM160-480q0 122 79 211.5T436-163q-72-55-114-137.5T280-480q0-97 42-179.5T436-797q-118 16-197 105.5T160-480Zm317 247 315-314q-4-18-9-35t-13-33L432-278q11 13 21 23.5t24 21.5ZM324-111.5Q251-143 197-197t-85.5-127Q80-397 80-480t31.5-156Q143-709 197-763t127-85.5Q397-880 480-880t156 31.5Q709-817 763-763t85.5 127Q880-563 880-480t-31.5 156Q817-251 763-197t-127 85.5Q563-80 480-80t-156-31.5ZM363-525l247-247q-8-3-14.5-6.5T581-784q-86 28-145.5 97.5T363-525Zm217 45Z"/></svg>
