<svg xmlns="http://www.w3.org/2000/svg" height="24" viewBox="0 -960 960 960" width="24"><path d="M480.12-149q-34.555 0-59.131-24.553-24.576-24.554-24.576-59.034 0-34.578 24.554-59.202Q445.52-316.413 480-316.413q34.674 0 59.13 24.594 24.457 24.594 24.457 59.131 0 34.536-24.457 59.112Q514.674-149 480.12-149Zm0-247.413q-34.555 0-59.131-24.554Q396.413-445.52 396.413-480q0-34.674 24.554-59.13Q445.52-563.587 480-563.587q34.674 0 59.13 24.457 24.457 24.456 24.457 59.01 0 34.555-24.457 59.131-24.456 24.576-59.01 24.576Zm0-247.174q-34.555 0-59.131-24.644t-24.576-59.25q0-34.606 24.554-59.063Q445.52-811 480-811q34.674 0 59.13 24.456 24.457 24.457 24.457 59.063t-24.457 59.25q-24.456 24.644-59.01 24.644Z"/></svg>