<?xml version="1.0" encoding="UTF-8" standalone="no"?>
<svg
   xmlns:dc="http://purl.org/dc/elements/1.1/"
   xmlns:cc="http://creativecommons.org/ns#"
   xmlns:rdf="http://www.w3.org/1999/02/22-rdf-syntax-ns#"
   xmlns:svg="http://www.w3.org/2000/svg"
   xmlns="http://www.w3.org/2000/svg"
   xmlns:sodipodi="http://sodipodi.sourceforge.net/DTD/sodipodi-0.dtd"
   xmlns:inkscape="http://www.inkscape.org/namespaces/inkscape"
   height="24px"
   viewBox="0 -960 960 960"
   width="24px"
   fill="#000000"
   version="1.1"
   id="svg4"
   sodipodi:docname="dropper.svg"
   inkscape:version="1.0.2 (e86c870879, 2021-01-15)">
  <metadata
     id="metadata10">
    <rdf:RDF>
      <cc:Work
         rdf:about="">
        <dc:format>image/svg+xml</dc:format>
        <dc:type
           rdf:resource="http://purl.org/dc/dcmitype/StillImage" />
      </cc:Work>
    </rdf:RDF>
  </metadata>
  <defs
     id="defs8" />
  <sodipodi:namedview
     pagecolor="#ffffff"
     bordercolor="#666666"
     borderopacity="1"
     objecttolerance="10"
     gridtolerance="10"
     guidetolerance="10"
     inkscape:pageopacity="0"
     inkscape:pageshadow="2"
     inkscape:window-width="1697"
     inkscape:window-height="1223"
     id="namedview6"
     showgrid="false"
     inkscape:zoom="21"
     inkscape:cx="9.0478766"
     inkscape:cy="14.885436"
     inkscape:window-x="0"
     inkscape:window-y="25"
     inkscape:window-maximized="0"
     inkscape:current-layer="svg4" />
  <path
     id="path2-5"
     style="fill:#999999"
     sodipodi:type="inkscape:offset"
     inkscape:radius="28.664299"
     inkscape:original="M 706 -866.28711 C 697.25569 -866.28711 688.47158 -864.57848 680.36523 -861.33594 C 672.45303 -858.17106 664.93272 -853.52257 658.70508 -847.29492 L 553.875 -742.46484 L 496.16797 -799.42188 A 27.290576 27.290576 0 0 0 457.87695 -799.46484 L 400.87695 -743.46484 A 27.290576 27.290576 0 0 0 400.70508 -704.70508 L 438.41016 -667 L 100.70508 -329.29492 A 27.290576 27.290576 0 0 0 92.712891 -310 L 92.712891 -120 A 27.290576 27.290576 0 0 0 120 -92.712891 L 288 -92.712891 A 27.290576 27.290576 0 0 0 310.12109 -135.97656 C 302.02696 -147.18382 294.37144 -159.05342 287.15625 -171.60156 C 279.94108 -184.14968 273.16688 -197.37583 266.8418 -211.29102 A 27.290576 27.290576 0 0 0 242 -227.28711 L 227.28711 -227.28711 L 227.28711 -265.67383 L 533.9707 -571.4375 L 684.70508 -420.70508 A 27.290576 27.290576 0 0 0 723.29492 -420.70508 L 779.29492 -476.70508 A 27.290576 27.290576 0 0 0 779.63086 -514.95312 L 742.25586 -553.66406 L 847.29492 -658.70508 C 853.52257 -664.93272 858.17106 -672.45303 861.33594 -680.36523 C 864.57848 -688.47158 866.28711 -697.25569 866.28711 -706 C 866.28711 -714.74431 864.56468 -723.62382 861.08203 -731.75 C 858.03181 -738.86718 853.91903 -745.52138 848.96289 -751.46875 A 27.290576 27.290576 0 0 0 847.29492 -753.29492 L 753.29492 -847.29492 A 27.290576 27.290576 0 0 0 751.46875 -848.96289 C 745.52138 -853.91903 738.86718 -858.03181 731.75 -861.08203 C 723.62382 -864.56468 714.74431 -866.28711 706 -866.28711 z M 600 -427.28711 C 534.53547 -427.28711 472.99307 -409.70916 417.56445 -375.15625 C 361.74206 -340.35787 320.16665 -291.35074 294.81055 -230.49609 A 27.290576 27.290576 0 0 0 294.81055 -209.50391 C 320.16665 -148.64926 361.74206 -99.642126 417.56445 -64.84375 C 472.99307 -30.290844 534.53547 -12.712891 600 -12.712891 C 665.46453 -12.712891 727.00693 -30.290844 782.43555 -64.84375 C 838.25794 -99.642126 879.83335 -148.64926 905.18945 -209.50391 A 27.290576 27.290576 0 0 0 905.18945 -230.49609 C 879.83335 -291.35074 838.25794 -340.35787 782.43555 -375.15625 C 727.00693 -409.70916 665.46453 -427.28711 600 -427.28711 z M 540.89648 -284.22656 C 540.00504 -283.40842 539.06265 -282.65249 538.20508 -281.79492 C 521.94426 -265.53411 512.71289 -243.03383 512.71289 -220 C 512.71289 -196.96617 521.94426 -174.46589 538.20508 -158.20508 C 539.06265 -157.34751 540.00504 -156.59158 540.89648 -155.77344 C 528.68252 -159.41962 516.73464 -164.2151 504.99023 -170.26172 C 480.87905 -182.6754 460.7782 -199.08975 443.91797 -220 C 460.7782 -240.91025 480.87905 -257.3246 504.99023 -269.73828 C 516.73464 -275.7849 528.68252 -280.58038 540.89648 -284.22656 z M 659.10352 -284.22656 C 671.31748 -280.58038 683.26536 -275.7849 695.00977 -269.73828 C 719.12095 -257.3246 739.2218 -240.91025 756.08203 -220 C 739.2218 -199.08975 719.12095 -182.6754 695.00977 -170.26172 C 683.26536 -164.2151 671.31748 -159.41962 659.10352 -155.77344 C 659.99496 -156.59158 660.93735 -157.34751 661.79492 -158.20508 C 678.05574 -174.46589 687.28711 -196.96617 687.28711 -220 C 687.28711 -243.03383 678.05574 -265.53411 661.79492 -281.79492 C 660.93735 -282.65249 659.99496 -283.40842 659.10352 -284.22656 z "
     d="m 706,-894.95117 c -12.47829,0 -24.76911,2.39709 -36.28125,7.00195 -11.08328,4.43331 -21.93998,11.04153 -31.2832,20.38477 l -84.69336,84.69336 -37.43946,-36.95118 a 28.667165,28.667165 0 0 0 -0.002,-0.004 c -20.64729,-20.37183 -57.81682,-20.41334 -78.50976,-0.0879 a 28.667165,28.667165 0 0 0 -0.002,0.002 l -57,56 a 28.667165,28.667165 0 0 0 -0.004,0.002 c -21.01111,20.64742 -21.17874,58.63777 -0.35157,79.47071 a 28.667165,28.667165 0 0 0 0.002,0.004 L 397.87109,-667 80.435547,-349.56445 a 28.667165,28.667165 0 0 0 0,0.002 c -10.356435,10.35755 -16.38597,24.91355 -16.386719,39.56055 a 28.667165,28.667165 0 0 0 0,0.002 v 190 a 28.667165,28.667165 0 0 0 0,0.004 c 0.0037,29.293161 26.654101,55.943541 55.947262,55.947262 a 28.667165,28.667165 0 0 0 0.004,0 h 168 a 28.667165,28.667165 0 0 0 0.008,0 c 20.0162,-0.0049 39.51189,-11.745994 49.08985,-29.300781 19.27499,20.00823 41.08779,37.735045 65.30273,52.830078 C 462.20851,-3.2365452 529.40435,15.951172 600,15.951172 c 70.59565,0 137.79149,-19.1877172 197.59961,-56.470703 60.65298,-37.809655 106.51558,-91.879179 134.04883,-157.958989 5.66391,-13.59382 5.66391,-29.44914 0,-43.04296 C 904.11519,-307.60129 858.25259,-361.67081 797.59961,-399.48047 786.0261,-406.69513 774.09787,-413.01959 762,-418.87109 l 37.56445,-37.56446 a 28.667165,28.667165 0 0 0 0.002,-0.004 c 20.47938,-20.48436 20.80587,-57.57901 0.68945,-78.41993 a 28.667165,28.667165 0 0 0 -0.004,-0.004 l -17.8125,-18.44727 85.125,-85.125 v -0.002 c 9.34269,-9.34299 15.95162,-20.19839 20.38477,-31.28125 4.60486,-11.51214 7.00195,-23.80296 7.00195,-36.28125 0,-12.50845 -2.41057,-25.11101 -7.52344,-37.04102 -4.17696,-9.74625 -9.74836,-18.74335 -16.44335,-26.77734 a 28.667165,28.667165 0 0 0 -0.002,-0.002 c -1.08261,-1.29891 -2.22416,-2.54858 -3.41992,-3.74414 l -93.99805,-93.99805 c -1.19556,-1.19576 -2.44523,-2.33731 -3.74414,-3.41992 a 28.667165,28.667165 0 0 0 -0.002,-0.002 c -8.03399,-6.69499 -17.03109,-12.26639 -26.77734,-16.44335 -11.93001,-5.11287 -24.53257,-7.52344 -37.04102,-7.52344 z m -172.06055,364.02148 75.29493,75.29297 c -3.08421,-0.0738 -6.13675,-0.31445 -9.23438,-0.31445 -70.59565,0 -137.79148,19.18771 -197.59961,56.4707 -0.29741,0.1854 -0.58221,0.38413 -0.87891,0.57031 z m -239.22656,238.50977 c -8.93488,14.23634 -16.85908,29.23171 -23.74023,44.92773 -4.63309,-2.8347 -9.64147,-5.00469 -14.86719,-6.4375 z m 189.36719,71.7832 c -0.001,0.21333 -0.0312,0.42329 -0.0312,0.63672 0,0.21343 0.0301,0.42339 0.0312,0.63672 -0.23378,-0.21106 -0.46661,-0.42412 -0.69922,-0.63672 0.23261,-0.2126 0.46544,-0.42566 0.69922,-0.63672 z m 231.83984,0 c 0.23378,0.21106 0.46661,0.42412 0.69922,0.63672 -0.23261,0.2126 -0.46544,0.42566 -0.69922,0.63672 0.001,-0.21333 0.0312,-0.42329 0.0312,-0.63672 0,-0.21343 -0.0301,-0.42339 -0.0312,-0.63672 z"
     transform="matrix(1.1322311,0,0,1.1597805,-61.422288,90.228003)" />
  <path
     id="path2-7-3"
     style="fill:#ffffff"
     sodipodi:type="inkscape:offset"
     inkscape:radius="40.046486"
     inkscape:original="M 705.48047 -835.19141 C 700.14714 -835.19141 694.98047 -834.19141 689.98047 -832.19141 C 684.98047 -830.19141 680.8138 -827.52474 677.48047 -824.19141 L 553.48047 -700.19141 L 476.48047 -776.19141 L 419.48047 -720.19141 L 476.48047 -663.19141 L 119.48047 -306.19141 L 119.48047 -116.19141 L 287.48047 -116.19141 C 278.8138 -128.19141 270.64714 -140.85807 262.98047 -154.19141 C 255.3138 -167.52474 248.14714 -181.52474 241.48047 -196.19141 L 199.48047 -196.19141 L 199.48047 -273.19141 L 533.48047 -606.19141 L 703.48047 -436.19141 L 759.48047 -492.19141 L 703.48047 -550.19141 L 827.48047 -674.19141 C 830.8138 -677.52474 833.48047 -681.69141 835.48047 -686.69141 C 837.48047 -691.69141 838.48047 -696.85807 838.48047 -702.19141 C 838.48047 -707.52474 837.48047 -712.52474 835.48047 -717.19141 C 833.48047 -721.85807 830.8138 -726.19141 827.48047 -730.19141 L 733.48047 -824.19141 C 729.48047 -827.52474 725.14714 -830.19141 720.48047 -832.19141 C 715.8138 -834.19141 710.8138 -835.19141 705.48047 -835.19141 z M 706.48047 -740.19141 L 743.48047 -703.19141 L 643.48047 -609.19141 L 610.48047 -644.19141 L 706.48047 -740.19141 z M 599.48047 -396.19141 C 538.8138 -396.19141 482.8138 -380.19141 431.48047 -348.19141 C 380.14714 -316.19141 342.8138 -272.19144 319.48047 -216.19141 C 342.8138 -160.19141 380.14714 -116.19141 431.48047 -84.191406 C 482.8138 -52.191406 538.8138 -36.191406 599.48047 -36.191406 C 660.14714 -36.191406 716.14714 -52.191406 767.48047 -84.191406 C 818.8138 -116.19141 856.14714 -160.19141 879.48047 -216.19141 C 856.14714 -272.19144 818.8138 -316.19141 767.48047 -348.19141 C 716.14714 -380.19141 660.14714 -396.19141 599.48047 -396.19141 z M 599.48047 -316.19141 C 637.48047 -316.19141 673.3138 -307.52474 706.98047 -290.19141 C 740.64713 -272.85807 768.14714 -248.19144 789.48047 -216.19141 C 768.14714 -184.19141 740.64713 -159.52474 706.98047 -142.19141 C 673.3138 -124.85807 637.48047 -116.19141 599.48047 -116.19141 C 561.48047 -116.19141 525.64714 -124.85807 491.98047 -142.19141 C 458.3138 -159.52474 430.8138 -184.19141 409.48047 -216.19141 C 430.8138 -248.19144 458.3138 -272.85807 491.98047 -290.19141 C 525.64714 -307.52474 561.48047 -316.19141 599.48047 -316.19141 z M 599.48047 -276.19141 C 582.8138 -276.19141 568.64714 -270.35807 556.98047 -258.69141 C 545.3138 -247.02474 539.48047 -232.85811 539.48047 -216.19141 C 539.48047 -199.52474 545.3138 -185.35807 556.98047 -173.69141 C 568.64714 -162.02474 582.8138 -156.19141 599.48047 -156.19141 C 616.14714 -156.19141 630.3138 -162.02474 641.98047 -173.69141 C 653.64714 -185.35807 659.48047 -199.52474 659.48047 -216.19141 C 659.48047 -232.85811 653.64714 -247.02474 641.98047 -258.69141 C 630.3138 -270.35807 616.14714 -276.19141 599.48047 -276.19141 z "
     d="m 705.48047,-875.23828 c -10.33915,0 -20.8143,2.04173 -30.37305,5.86523 -9.27383,3.70953 -18.36245,9.28433 -25.94336,16.86524 l -95.86718,95.86719 -48.68555,-48.05274 a 40.050491,40.050491 0 0 0 -56.19727,-0.0644 l -57,56 a 40.050491,40.050491 0 0 0 -0.25,56.88281 l 28.6836,28.68359 -328.683598,328.6836 a 40.050491,40.050491 0 0 0 -11.730468,28.3164 v 190 a 40.050491,40.050491 0 0 0 40.046876,40.046879 h 168 a 40.050491,40.050491 0 0 0 38.86328,-49.697269 c 23.07761,29.637992 51.11274,55.164057 83.95117,75.634769 57.3434,35.746536 121.47774,54.0624998 189.18555,54.0624998 67.70781,0 131.84215,-18.3159638 189.18555,-54.0624998 57.92128,-36.106782 101.47939,-87.457559 127.78125,-150.582029 a 40.050491,40.050491 0 0 0 0,-30.80469 c -26.30186,-63.12451 -69.85998,-114.47526 -127.78125,-150.58203 -17.6262,-10.98776 -35.96143,-20.12275 -54.77735,-27.79102 l 53.90821,-53.9082 a 40.050491,40.050491 0 0 0 0.49218,-56.13281 l -28.66601,-29.69141 96.17383,-96.17578 c 7.5809,-7.58091 13.1557,-16.66953 16.86523,-25.94336 3.82349,-9.55873 5.86523,-20.0339 5.86523,-30.37305 0,-10.33914 -2.06241,-21.03169 -6.23828,-30.77539 -3.54124,-8.26289 -8.33,-16.00342 -14.04492,-22.86132 a 40.050491,40.050491 0 0 0 -2.44726,-2.67969 l -94,-94 a 40.050491,40.050491 0 0 0 -2.67969,-2.44727 c -6.85789,-5.7149 -14.5984,-10.50367 -22.86133,-14.04492 -9.7437,-4.17587 -20.43625,-6.23828 -30.77539,-6.23828 z m -172.04297,325.63867 116.92578,116.92383 c -16.69697,-2.35262 -33.67109,-3.5625 -50.88281,-3.5625 -67.70781,0 -131.84215,18.31596 -189.18555,54.0625 -57.92128,36.10677 -101.47939,87.45752 -127.78125,150.58203 a 40.050491,40.050491 0 0 0 -2.19531,23.76367 c -0.78035,-1.66624 -1.61365,-3.24572 -2.38086,-4.93359 a 40.050491,40.050491 0 0 0 -36.45703,-23.47461 h -1.95313 v -20.33008 z m -27.01367,297.16602 c -4.49626,11.58587 -6.99024,23.94391 -6.99024,36.24218 0,12.29827 2.49398,24.65632 6.99024,36.24219 -17.71656,-9.64081 -32.98559,-21.56598 -46.27539,-36.24219 13.28979,-14.6762 28.55881,-26.60136 46.27539,-36.24218 z m 186.11328,0 c 17.71657,9.64082 32.98559,21.56598 46.27539,36.24218 -13.28981,14.67621 -28.55883,26.60138 -46.27539,36.24219 4.49626,-11.58587 6.99023,-23.94392 6.99023,-36.24219 0,-12.29827 -2.49397,-24.65631 -6.99023,-36.24218 z"
     transform="matrix(1.1322311,0,0,1.1597805,-86.720578,44.516343)" />
  <path
     d="m 641.84734,-662.01187 113.2231,-109.01938 -41.89254,-42.91188 -108.69419,111.33894 z m 0,0 -37.36363,-40.59232 z M 48.558218,-90.240031 V -310.59837 l 404.206522,-414.04165 -64.53718,-66.1075 64.53718,-64.94771 87.1818,88.14333 140.39666,-143.81279 q 5.66115,-5.7989 14.15289,-9.27825 8.49173,-3.47934 17.54958,-3.47934 9.05785,0 16.98347,3.47934 7.92561,3.47935 14.719,9.27825 l 106.42972,109.01937 q 5.66115,6.95868 9.05785,15.07715 3.39669,8.11846 3.39669,17.3967 0,9.27825 -3.39669,17.9766 -3.3967,8.69836 -9.05785,14.49726 l -140.39665,143.81279 63.40493,67.26727 -63.40493,64.94771 -192.4793,-197.16269 -378.1652,386.20692 v 89.30314 h 47.55371 q 11.32231,25.51517 24.34297,48.71078 13.02066,23.19561 27.73966,44.071659 z M 592.02917,2.5424227 q -103.03304,0 -190.21483,-55.6694707 -87.1818,-55.669472 -126.80989,-153.091042 39.62809,-97.4216 126.80989,-153.09106 87.18179,-55.66947 190.21483,-55.66947 103.03303,0 190.21482,55.66947 87.1818,55.66946 126.80989,153.09106 -39.62809,97.42157 -126.80989,153.091042 Q 695.0622,2.5424227 592.02917,2.5424227 Z m 0,-92.7824537 q 64.53717,0 121.71485,-30.154299 57.17766,-30.15429 93.40905,-85.82376 -36.23139,-55.6695 -93.40905,-85.82379 -57.17768,-30.1543 -121.71485,-30.1543 -64.53718,0 -121.71485,30.1543 -57.17767,30.15429 -93.40907,85.82379 36.2314,55.66947 93.40907,85.82376 57.17767,30.154299 121.71485,30.154299 z m 0,-46.391219 q -28.30578,0 -48.11982,-20.29616 -19.81405,-20.29616 -19.81405,-49.29068 0,-28.99456 19.81405,-49.29072 19.81404,-20.29614 48.11982,-20.29614 28.30578,0 48.11982,20.29614 19.81405,20.29616 19.81405,49.29072 0,28.99452 -19.81405,49.29068 -19.81404,20.29616 -48.11982,20.29616 z"
     id="path2-7"
     style="stroke-width:1.14592" />
</svg>
