<?xml version="1.0" encoding="UTF-8" standalone="no"?>
<svg
   xmlns:dc="http://purl.org/dc/elements/1.1/"
   xmlns:cc="http://creativecommons.org/ns#"
   xmlns:rdf="http://www.w3.org/1999/02/22-rdf-syntax-ns#"
   xmlns:svg="http://www.w3.org/2000/svg"
   xmlns="http://www.w3.org/2000/svg"
   xmlns:sodipodi="http://sodipodi.sourceforge.net/DTD/sodipodi-0.dtd"
   xmlns:inkscape="http://www.inkscape.org/namespaces/inkscape"
   height="24px"
   viewBox="0 -960 960 960"
   width="24px"
   fill="#5f6368"
   version="1.1"
   id="svg4"
   sodipodi:docname="fit_select.svg"
   inkscape:version="0.92.2 (5c3e80d, 2017-08-06)">
  <metadata
     id="metadata10">
    <rdf:RDF>
      <cc:Work
         rdf:about="">
        <dc:format>image/svg+xml</dc:format>
        <dc:type
           rdf:resource="http://purl.org/dc/dcmitype/StillImage" />
        <dc:title></dc:title>
      </cc:Work>
    </rdf:RDF>
  </metadata>
  <defs
     id="defs8" />
  <sodipodi:namedview
     pagecolor="#ffffff"
     bordercolor="#666666"
     borderopacity="1"
     objecttolerance="10"
     gridtolerance="10"
     guidetolerance="10"
     inkscape:pageopacity="0"
     inkscape:pageshadow="2"
     inkscape:window-width="2539"
     inkscape:window-height="1892"
     id="namedview6"
     showgrid="false"
     inkscape:zoom="39.333333"
     inkscape:cx="6.568932"
     inkscape:cy="9.332218"
     inkscape:window-x="0"
     inkscape:window-y="0"
     inkscape:window-maximized="0"
     inkscape:current-layer="svg4" />
  <path
     id="path6096"
     style="stroke-width:0.54083472"
     d="m 666.89266,-603.98708 v -35.16545 q 21.95921,0 37.59682,10.32984 15.63763,10.32986 15.63763,24.83561 z m 0,70.3309 v -35.16545 h 53.23445 v 35.16545 z m 0,70.33091 v -35.16544 h 53.23445 v 35.16544 z m 0,70.33093 v -35.16545 h 53.23445 v 35.16545 z m 0,35.16544 h 53.23445 q 0,14.50575 -15.63763,24.8356 -15.63761,10.32986 -37.59682,10.32986 z M 560.42373,-603.98708 v -35.16545 h 53.23446 v 35.16545 z m 0,281.32364 v -35.16546 h 53.23446 v 35.16546 z M 453.95479,-603.98708 v -35.16545 h 53.23446 v 35.16545 z m 0,281.32364 v -35.16546 h 53.23446 v 35.16546 z M 347.48587,-603.98708 v -35.16545 h 53.23446 v 35.16545 z m 0,281.32364 v -35.16546 h 53.23446 v 35.16546 z m -53.23446,-281.32364 h -53.23447 q 0,-14.50575 15.63762,-24.83561 15.63764,-10.32984 37.59685,-10.32984 z m -53.23447,70.3309 v -35.16545 h 53.23447 v 35.16545 z m 0,70.33091 v -35.16544 h 53.23447 v 35.16544 z m 0,70.33093 v -35.16545 h 53.23447 v 35.16545 z m 53.23447,35.16544 v 35.16546 q -21.95921,0 -37.59685,-10.32986 -15.63762,-10.32985 -15.63762,-24.8356 z M 320,-400 v -160 z m -160,240 q -33,0 -56.5,-23.5 Q 80,-207 80,-240 v -120 h 80 v 120 h 120 v 80 z m 520,0 v -80 h 120 v -120 h 80 v 120 q 0,33 -23.5,56.5 Q 833,-160 800,-160 Z M 80,-600 v -120 q 0,-33 23.5,-56.5 Q 127,-800 160,-800 h 120 v 80 H 160 v 120 z m 720,0 V -720 H 680 v -80 h 120 q 33,0 56.5,23.5 23.5,23.5 23.5,56.5 v 120 z" />
</svg>
