<svg width="16" height="16" viewBox="0 0 16 16" fill="none" xmlns="http://www.w3.org/2000/svg">
<path d="M6.1186 6.78127C6.09209 6.53317 5.98035 6.33998 5.78338 6.20173C5.5883 6.06347 5.33451 5.99434 5.02201 5.99434C4.80232 5.99434 4.61387 6.02748 4.45667 6.09377C4.29948 6.16006 4.17921 6.25002 4.09588 6.36366C4.01254 6.4773 3.96993 6.60703 3.96804 6.75286C3.96804 6.87408 3.9955 6.97919 4.05042 7.0682C4.10724 7.15722 4.18394 7.23298 4.28054 7.29548C4.37713 7.35608 4.48413 7.40722 4.60156 7.44889C4.71898 7.49055 4.83735 7.52559 4.95667 7.554L5.50213 7.69036C5.72182 7.7415 5.933 7.81063 6.13565 7.89775C6.34019 7.98487 6.52296 8.09472 6.68394 8.2273C6.84682 8.35987 6.97561 8.51991 7.07031 8.70741C7.16501 8.89491 7.21235 9.11461 7.21235 9.3665C7.21235 9.70741 7.12523 10.0076 6.95099 10.2671C6.77675 10.5246 6.52485 10.7263 6.19531 10.8722C5.86766 11.0161 5.47088 11.0881 5.00497 11.0881C4.55232 11.0881 4.15932 11.018 3.82599 10.8779C3.49455 10.7377 3.23508 10.5332 3.04758 10.2642C2.86198 9.99529 2.7616 9.66764 2.74644 9.28127H3.78338C3.79853 9.48392 3.86103 9.65248 3.97088 9.78695C4.08073 9.92142 4.22372 10.0218 4.39985 10.0881C4.57788 10.1544 4.77675 10.1875 4.99644 10.1875C5.22561 10.1875 5.42637 10.1534 5.59872 10.0852C5.77296 10.0152 5.90932 9.91858 6.00781 9.79548C6.10629 9.67048 6.15648 9.52464 6.15838 9.35798C6.15648 9.20646 6.11198 9.08146 6.02485 8.98298C5.93773 8.8826 5.81557 8.79926 5.65838 8.73298C5.50307 8.6648 5.32126 8.60419 5.11292 8.55116L4.45099 8.3807C3.97182 8.2576 3.59304 8.07105 3.31463 7.82105C3.03811 7.56915 2.89985 7.23487 2.89985 6.8182C2.89985 6.4754 2.99266 6.17521 3.17826 5.91764C3.36576 5.66006 3.6205 5.46025 3.94247 5.3182C4.26444 5.17426 4.62902 5.10229 5.03622 5.10229C5.4491 5.10229 5.81084 5.17426 6.12144 5.3182C6.43394 5.46025 6.67921 5.65817 6.85724 5.91195C7.03527 6.16385 7.12713 6.45362 7.13281 6.78127H6.1186Z" fill="black"/>
<path d="M12.0497 7.03979C12.0024 6.88639 11.937 6.74908 11.8537 6.62786C11.7722 6.50476 11.6738 6.39964 11.5582 6.31252C11.4446 6.2254 11.3139 6.16006 11.1662 6.1165C11.0185 6.07105 10.8575 6.04832 10.6832 6.04832C10.3707 6.04832 10.0923 6.12692 9.84801 6.28411C9.60369 6.44131 9.41145 6.67237 9.2713 6.97729C9.13305 7.28033 9.06392 7.64964 9.06392 8.08525C9.06392 8.52464 9.13305 8.8968 9.2713 9.20173C9.40956 9.50665 9.6018 9.73866 9.84801 9.89775C10.0942 10.0549 10.3802 10.1335 10.706 10.1335C11.0014 10.1335 11.2571 10.0767 11.473 9.96309C11.6908 9.84945 11.8584 9.68847 11.9758 9.48014C12.0933 9.26991 12.152 9.0237 12.152 8.7415L12.3906 8.77843H10.8111V7.95457H13.1719V8.65343C13.1719 9.15154 13.0658 9.58241 12.8537 9.94604C12.6416 10.3097 12.3499 10.59 11.9787 10.787C11.6075 10.982 11.1813 11.0796 10.7003 11.0796C10.1643 11.0796 9.69365 10.9593 9.28835 10.7188C8.88494 10.4763 8.5696 10.1326 8.34233 9.68752C8.11695 9.24055 8.00426 8.71025 8.00426 8.09661C8.00426 7.62692 8.07054 7.20741 8.20312 6.83809C8.33759 6.46877 8.52509 6.15533 8.76562 5.89775C9.00615 5.63828 9.28835 5.44131 9.61221 5.30684C9.93608 5.17048 10.2883 5.10229 10.669 5.10229C10.991 5.10229 11.2912 5.14964 11.5696 5.24434C11.848 5.33714 12.0952 5.46972 12.3111 5.64207C12.5289 5.81442 12.7079 6.01896 12.848 6.2557C12.9882 6.49245 13.08 6.75381 13.1236 7.03979H12.0497Z" fill="black"/>
<rect x="0.5" y="0.5" width="15" height="15" rx="1.5" stroke="black"/>
</svg>
