<?xml version="1.0" encoding="UTF-8" standalone="no"?>
<svg
   xmlns:dc="http://purl.org/dc/elements/1.1/"
   xmlns:cc="http://creativecommons.org/ns#"
   xmlns:rdf="http://www.w3.org/1999/02/22-rdf-syntax-ns#"
   xmlns:svg="http://www.w3.org/2000/svg"
   xmlns="http://www.w3.org/2000/svg"
   xmlns:sodipodi="http://sodipodi.sourceforge.net/DTD/sodipodi-0.dtd"
   xmlns:inkscape="http://www.inkscape.org/namespaces/inkscape"
   height="24px"
   viewBox="0 -960 960 960"
   width="24px"
   fill="#000000"
   version="1.1"
   id="svg4"
   sodipodi:docname="point_scan.svg"
   inkscape:version="1.0.2 (e86c870879, 2021-01-15)">
  <metadata
     id="metadata10">
    <rdf:RDF>
      <cc:Work
         rdf:about="">
        <dc:format>image/svg+xml</dc:format>
        <dc:type
           rdf:resource="http://purl.org/dc/dcmitype/StillImage" />
      </cc:Work>
    </rdf:RDF>
  </metadata>
  <defs
     id="defs8" />
  <sodipodi:namedview
     pagecolor="#ffffff"
     bordercolor="#666666"
     borderopacity="1"
     objecttolerance="10"
     gridtolerance="10"
     guidetolerance="10"
     inkscape:pageopacity="0"
     inkscape:pageshadow="2"
     inkscape:window-width="1767"
     inkscape:window-height="1082"
     id="namedview6"
     showgrid="false"
     inkscape:zoom="21"
     inkscape:cx="10.56656"
     inkscape:cy="12.810913"
     inkscape:window-x="0"
     inkscape:window-y="25"
     inkscape:window-maximized="0"
     inkscape:current-layer="svg4" />
  <path
     id="path2-3"
     style="fill:#ffffff"
     sodipodi:type="inkscape:offset"
     inkscape:radius="41.226967"
     inkscape:original="M 440 -840 L 440 -640 L 520 -640 L 520 -840 L 440 -840 z M 120 -520 L 120 -440 L 320 -440 L 320 -520 L 120 -520 z M 640 -520 L 640 -440 L 840 -440 L 840 -520 L 640 -520 z M 440 -320 L 440 -120 L 520 -120 L 520 -320 L 440 -320 z "
     d="M 440,-881.22656 A 41.23109,41.23109 0 0 0 398.77344,-840 v 200 A 41.23109,41.23109 0 0 0 440,-598.77344 h 80 A 41.23109,41.23109 0 0 0 561.22656,-640 V -840 A 41.23109,41.23109 0 0 0 520,-881.22656 Z m -320,320 A 41.23109,41.23109 0 0 0 78.773438,-520 v 80 A 41.23109,41.23109 0 0 0 120,-398.77344 H 320 A 41.23109,41.23109 0 0 0 361.22656,-440 v -80 A 41.23109,41.23109 0 0 0 320,-561.22656 Z m 520,0 A 41.23109,41.23109 0 0 0 598.77344,-520 v 80 A 41.23109,41.23109 0 0 0 640,-398.77344 H 840 A 41.23109,41.23109 0 0 0 881.22656,-440 v -80 A 41.23109,41.23109 0 0 0 840,-561.22656 Z m -200,200 A 41.23109,41.23109 0 0 0 398.77344,-320 v 200 A 41.23109,41.23109 0 0 0 440,-78.773438 h 80 A 41.23109,41.23109 0 0 0 561.22656,-120 V -320 A 41.23109,41.23109 0 0 0 520,-361.22656 Z"
     transform="matrix(1.1548586,0,0,1.1464138,-73.157865,67.998591)" />
  <path
     d="m 434.9799,-665.70626 v -229.28276 h 92.38869 v 229.28276 z m 0,596.135192 V -298.85384 h 92.38869 V -69.571068 Z M 665.95161,-436.42349 v -91.71311 h 230.97172 v 91.71311 z m -600.526448,0 V -528.1366 H 296.39688 v 91.71311 z"
     id="path2"
     sodipodi:nodetypes="cccccccccccccccccccc"
     style="stroke-width:1.15063" />
</svg>
