<svg id="a" data-name="Final Icons" version="1.1" viewBox="0 0 100 100" xmlns="http://www.w3.org/2000/svg">
<defs>
<style>.cls-1{fill:#000000;}.cls-2{fill:none;stroke:#e8eaed;stroke-miterlimit:10;stroke-width:2.5px;}</style>
</defs>
<path class="cls-1" d="m27.649 43.288v7.0979h22.204a23.8 23.8 0 0 1 13.244-6.7619v-0.34999zm0-14.168v7.0839h17.724v-7.0839zm0 28.363v7.0839h14.994a23.968 23.968 0 0 1 2.072-7.0839zm0-14.196v7.0979h22.204a23.8 23.8 0 0 1 13.244-6.7619v-0.34999zm0-14.168v7.0839h17.724v-7.0839zm0 28.363v7.0839h14.994a23.968 23.968 0 0 1 2.072-7.0839zm0 0v7.0839h14.994a23.968 23.968 0 0 1 2.072-7.0839zm0-28.363v7.0839h17.724v-7.0839zm0 14.168v7.0979h22.204a23.8 23.8 0 0 1 13.244-6.7619v-0.34999zm0 0v7.0979h22.204a23.8 23.8 0 0 1 13.244-6.7619v-0.34999zm0-14.168v7.0839h17.724v-7.0839zm0 28.363v7.0839h14.994a23.968 23.968 0 0 1 2.072-7.0839zm0 0v7.0839h14.994a23.968 23.968 0 0 1 2.072-7.0839zm0-28.363v7.0839h17.724v-7.0839zm0 14.168v7.0979h22.204a23.8 23.8 0 0 1 13.244-6.7619v-0.34999zm31.905-28.363h-39.017a7.1259 7.1259 0 0 0-7.0839 7.0839v49.671a7.0979 7.0979 0 0 0 7.0839 7.0839h24.178a23.8 23.8 0 0 1-2.072-7.0839h-22.106v-49.671h35.475v14.196h14.182v7.2799a22.848 22.848 0 0 1 7.0979 1.904v-12.74zm-31.905 42.559v7.0839h14.994a23.968 23.968 0 0 1 2.072-7.0839zm0-28.363v7.0839h17.724v-7.0839zm0 14.168v7.0979h22.204a23.8 23.8 0 0 1 13.244-6.7619v-0.34999zm0 0v7.0979h22.204a23.8 23.8 0 0 1 13.244-6.7619v-0.34999zm0-14.168v7.0839h17.724v-7.0839zm0 28.363v7.0839h14.994a23.968 23.968 0 0 1 2.072-7.0839zm0 0v7.0839h14.994a23.968 23.968 0 0 1 2.072-7.0839zm0-28.363v7.0839h17.724v-7.0839zm0 14.168v7.0979h22.204a23.8 23.8 0 0 1 13.244-6.7619v-0.34999zm0 0v7.0979h22.204a23.8 23.8 0 0 1 13.244-6.7619v-0.34999zm0-14.168v7.0839h17.724v-7.0839zm0 28.363v7.0839h14.994a23.968 23.968 0 0 1 2.072-7.0839z" stroke-width="1.4"/>
<path d="m79.756 55.566a17.724 17.724 0 0 0-30.267 12.6 17.682 17.682 0 0 0 17.724 17.682 17.682 17.682 0 0 0 17.724-17.724 17.122 17.122 0 0 0-5.1799-12.558z" fill="none" stroke="#000" stroke-miterlimit="10" stroke-width="3.4999px"/>
<polygon class="cls-1" transform="matrix(1.4 0 0 1.4 -20.804 -19.613)" points="61.33 55.07 63.87 55.07 63.87 62.16 68.62 66.91 66.84 68.69 61.33 63.18"/>
</svg>
