<svg id="a" data-name="Final Icons" version="1.1" viewBox="0 0 100 100" xmlns="http://www.w3.org/2000/svg">
<defs>
<style>.cls-1{fill:none;stroke:#e8eaed;stroke-miterlimit:10;stroke-width:2.5px;}.cls-2{fill:#000000;}</style>
</defs>
<path class="cls-1" d="m84.813 57.755a18.748 18.748 0 0 0-26.51 26.51 18.792 18.792 0 0 0 26.51 0 18.792 18.792 0 0 0 0-26.51z" fill="none" stroke="#000" stroke-miterlimit="10" stroke-width="3.6963px"/>
<polygon class="cls-2" transform="matrix(1.4785 0 0 1.4785 -21.759 -21.893)" points="64.11 62.33 68.87 67.08 67.09 68.86 61.58 63.35 61.58 55.24 64.11 55.24"/>
<path class="cls-2" d="m73.99 16.356a6.5942 6.5942 0 0 0-4.8644-2.0256h-48.2a6.89 6.89 0 0 0-6.8752 6.89v55.075a6.89 6.89 0 0 0 6.8752 6.89h28.284a25.549 25.549 0 0 1-2.9571-12.183 26.096 26.096 0 0 1 1.3602-8.472h-26.614v-27.545h48.2v10.158a27.338 27.338 0 0 1 3.1493-0.17742 28.092 28.092 0 0 1 3.7407 0.25135v-23.997a6.6238 6.6238 0 0 0-2.0995-4.8644zm-39.285 53.064h6.8752v6.8752h-6.8752zm-6.89 0v6.8752h-6.89v-6.8752zm0-41.325h-6.89v-6.8752h6.89zm13.765 0h-6.8752v-6.8752h6.8752zm13.78 0h-6.89v-6.8752h6.89zm13.765 0h-6.8752v-6.8752h6.8752z" stroke-width="1.4785"/>
</svg>
