<?xml version="1.0" encoding="UTF-8" standalone="no"?>
<svg
   xmlns:dc="http://purl.org/dc/elements/1.1/"
   xmlns:cc="http://creativecommons.org/ns#"
   xmlns:rdf="http://www.w3.org/1999/02/22-rdf-syntax-ns#"
   xmlns:svg="http://www.w3.org/2000/svg"
   xmlns="http://www.w3.org/2000/svg"
   xmlns:sodipodi="http://sodipodi.sourceforge.net/DTD/sodipodi-0.dtd"
   xmlns:inkscape="http://www.inkscape.org/namespaces/inkscape"
   viewBox="0 0 128 128"
   version="1.1"
   id="svg6"
   sodipodi:docname="shot_grid.svg"
   inkscape:version="0.92.2 (5c3e80d, 2017-08-06)">
  <metadata
     id="metadata12">
    <rdf:RDF>
      <cc:Work
         rdf:about="">
        <dc:format>image/svg+xml</dc:format>
        <dc:type
           rdf:resource="http://purl.org/dc/dcmitype/StillImage" />
      </cc:Work>
    </rdf:RDF>
  </metadata>
  <defs
     id="defs10" />
  <sodipodi:namedview
     pagecolor="#ffffff"
     bordercolor="#666666"
     borderopacity="1"
     objecttolerance="10"
     gridtolerance="10"
     guidetolerance="10"
     inkscape:pageopacity="0"
     inkscape:pageshadow="2"
     inkscape:window-width="2198"
     inkscape:window-height="1439"
     id="namedview8"
     showgrid="false"
     inkscape:zoom="3.6875"
     inkscape:cx="66.972661"
     inkscape:cy="95.465942"
     inkscape:window-x="722"
     inkscape:window-y="279"
     inkscape:window-maximized="0"
     inkscape:current-layer="svg6" />
  <g
     id="g824"
     transform="matrix(0.89316898,0,0,0.89316898,6.8371854,6.2948125)">
    <circle
       style="fill:none;stroke:#000000;stroke-width:8;stroke-miterlimit:4;stroke-dasharray:none;stroke-opacity:1"
       id="circle2"
       r="62"
       cy="64"
       cx="64" />
    <path
       style="fill:#000000;fill-opacity:1"
       id="path4"
       d="m 36,70.7 -15.4,1.5 c 0.9,3.9 2.9,7 6.1,9.2 3.1,2.1 8.4,3.2 15.9,3.2 5.2,0 9.4,-0.7 12.5,-2 3,-1.3 5.3,-3.1 6.7,-5.4 1.4,-2.3 2.1,-4.6 2.1,-7 0,-2.4 -0.7,-4.5 -2,-6.5 -1.3,-2 -3.3,-3.5 -5.8,-4.6 -2.5,-1.1 -6.4,-1.9 -11.6,-2.5 -3.4,-0.4 -5.6,-0.9 -6.7,-1.4 -1,-0.5 -1.5,-1.3 -1.5,-2.3 0,-0.9 0.4,-1.7 1.2,-2.3 0.8,-0.6 2.1,-0.9 3.9,-0.9 1.7,0 3.2,0.4 4.4,1.2 0.9,0.6 1.5,1.6 1.9,2.9 l 14.8,-1.5 c -1,-2.7 -2.3,-4.8 -3.9,-6.4 -1.5,-1.6 -3.5,-2.8 -5.8,-3.5 -2.3,-0.8 -5.9,-1.1 -10.8,-1.1 -4.6,0 -8.3,0.5 -11,1.5 -2.7,1 -4.9,2.4 -6.4,4.4 -1.6,2 -2.3,4.3 -2.3,7 0,2.5 0.7,4.7 2.2,6.7 1.4,2 3.2,3.3 5.3,4.1 2.1,0.8 5.9,1.7 11.3,2.7 3.6,0.6 5.9,1.2 6.7,1.6 1.2,0.6 1.7,1.5 1.7,2.7 0,1 -0.4,1.9 -1.3,2.5 -1.2,0.9 -2.8,1.4 -4.9,1.4 -1.9,0 -3.4,-0.4 -4.6,-1.2 -1.2,-0.8 -2.1,-2.1 -2.7,-4 z m 31.1,-8.2 c 0,-12.3 9.7,-22.2 23.2,-22.2 6.3,0 11,1.5 13.9,2.8 l 0.2,0.1 v 10.6 l -0.6,-0.3 c -2.7,-1.2 -6.8,-2.8 -12.6,-2.8 -4,0 -7.1,1.4 -9.2,3.5 -2.1,2.1 -3.2,5 -3.2,8.1 0,6.3 4.4,11.7 11.8,11.7 1.4,0 2.9,-0.2 4,-0.4 V 62.8 h 11.2 v 18.5 l -0.2,0.1 c -4.1,2 -9.7,3.2 -15,3.2 C 76.7,84.7 67.1,75 67.1,62.5 Z"
       inkscape:connector-curvature="0" />
  </g>
</svg>
