<?xml version="1.0" encoding="utf-8"?>
<!-- Generator: Adobe Illustrator 28.0.0, SVG Export Plug-In . SVG Version: 6.00 Build 0)  -->
<svg version="1.1" id="Layer_1" xmlns="http://www.w3.org/2000/svg" xmlns:xlink="http://www.w3.org/1999/xlink" x="0px" y="0px"
	 viewBox="0 0 24 24" style="enable-background:new 0 0 24 24;" xml:space="preserve">
<style type="text/css">
	.st0{fill:#5F6368;}
</style>
<path class="st0" d="M15,16c1.4,0,2.6-0.5,3.5-1.5c1-1,1.5-2.2,1.5-3.5c0-0.4-0.1-0.8-0.1-1.1h-2.1c0.2,0.4,0.2,0.7,0.2,1.1
	c0,0.8-0.3,1.5-0.9,2.1S15.8,14,15,14H9c-0.8,0-1.5-0.3-2.1-0.9S6,11.8,6,11c0-0.6,0.2-1.2,0.5-1.7s0.8-0.9,1.3-1.1l1.1-0.5L9,6.7
	c0.1-0.8,0.4-1.4,1-1.9C10.6,4.3,11.2,4,12,4s1.4,0.3,2,0.8c0,0,0,0,0,0V2.4C13.4,2.2,12.7,2,12,2c-1.3,0-2.4,0.4-3.3,1.3
	S7.2,5.2,7,6.4c-0.9,0.4-1.7,1-2.2,1.8S4,10,4,11c0,1.4,0.5,2.6,1.5,3.5c1,1,2.2,1.5,3.5,1.5h2v4H5v2h14v-2h-6v-4H15z"/>
<path class="st0" d="M17,9V7h-2V5h2V3h2v2h2v2h-2v2H17z"/>
</svg>
