<?xml version="1.0" encoding="UTF-8" standalone="no"?>
<svg
   height="24px"
   viewBox="0 -960 960 960"
   width="24px"
   fill="#000000"
   version="1.1"
   id="svg1"
   sodipodi:docname="sdi-logo.svg"
   inkscape:version="1.3.2 (1:1.3.2+202311252150+091e20ef0f)"
   xmlns:inkscape="http://www.inkscape.org/namespaces/inkscape"
   xmlns:sodipodi="http://sodipodi.sourceforge.net/DTD/sodipodi-0.dtd"
   xmlns="http://www.w3.org/2000/svg"
   xmlns:svg="http://www.w3.org/2000/svg">
  <defs
     id="defs1" />
  <sodipodi:namedview
     id="namedview1"
     pagecolor="#ffffff"
     bordercolor="#000000"
     borderopacity="0.25"
     inkscape:showpageshadow="2"
     inkscape:pageopacity="0.0"
     inkscape:pagecheckerboard="0"
     inkscape:deskcolor="#d1d1d1"
     inkscape:zoom="76.5"
     inkscape:cx="12"
     inkscape:cy="12"
     inkscape:window-width="3774"
     inkscape:window-height="2082"
     inkscape:window-x="66"
     inkscape:window-y="41"
     inkscape:window-maximized="1"
     inkscape:current-layer="svg1" />
  <path
     d="m 121.83289,-114.91575 c -24.698918,0 -45.842684,-8.82156 -63.431311,-26.46469 -17.588624,-17.64313 -26.382935,-38.85241 -26.382935,-63.62786 v -540.55534 c 0,-24.77545 8.794311,-45.98474 26.382935,-63.62787 17.588627,-17.64313 38.732393,-26.46469 63.431311,-26.46469 h 718.51397 c 24.69891,0 45.84268,8.82156 63.43131,26.46469 17.58862,17.64313 26.38293,38.85242 26.38293,63.62787 v 540.55534 c 0,24.77545 -8.79431,45.98473 -26.38293,63.62786 -17.58863,17.64313 -38.7324,26.46469 -63.43131,26.46469 z m 0,-90.09255 H 840.34686 V -745.56364 H 121.83289 Z m 99.73515,-135.13884 h 133.16715 c 12.5769,0 23.11929,-4.33858 31.62719,-13.01575 8.5079,-8.67716 12.76186,-19.42931 12.76186,-32.25642 v -67.90828 c 0,-12.82711 -4.25396,-23.57926 -12.76186,-32.25642 -8.5079,-8.67717 -19.05029,-13.01575 -31.62719,-13.01575 H 243.76257 v -45.27218 h 88.7781 v 22.63608 h 66.58357 v -45.27217 c 0,-12.82712 -4.25396,-23.57926 -12.76186,-32.25642 -8.5079,-8.67718 -19.05029,-13.01576 -31.62719,-13.01576 H 221.56804 c -12.5769,0 -23.1193,4.33858 -31.6272,13.01576 -8.5079,8.67716 -12.76185,19.4293 -12.76185,32.25642 v 67.90827 c 0,12.82712 4.25395,23.57926 12.76185,32.25642 8.5079,8.67717 19.0503,13.01575 31.6272,13.01575 h 110.97263 v 45.27219 h -88.7781 v -22.6361 h -66.58358 v 45.27219 c 0,12.82711 4.25395,23.57926 12.76185,32.25642 8.5079,8.67717 19.0503,13.01575 31.6272,13.01575 z m 225.66077,-0.91003 H 626.8573 c 12.72369,0 23.38913,-4.31694 31.99633,-12.95081 8.6072,-8.63386 12.9108,-19.33235 12.9108,-32.09547 v -180.18511 c 0,-12.76311 -4.3036,-23.4616 -12.9108,-32.09548 -8.6072,-8.63386 -19.27264,-12.9508 -31.99633,-12.9508 H 447.22881 Z m 67.36069,-67.56942 v -135.13883 h 89.81424 v 135.13883 z M 121.83289,-205.0083 v -540.55534 z"
     id="path1"
     sodipodi:nodetypes="ssssssssssssscccccssssssscccccssssssssscccccssscsssssscccccccccc"
     style="display:inline" />
  <rect
     style="fill:#000000;stroke-width:40"
     id="rect1"
     width="59.458916"
     height="179.40048"
     x="721.4101"
     y="-521.45813"
     ry="0" />
  <rect
     style="fill:#000000;stroke-width:40"
     id="rect2"
     width="56.352432"
     height="51.135048"
     x="723.11475"
     y="-611.39056" />
</svg>
